<?xml version="1.0" encoding="UTF-8" standalone="no"?><!DOCTYPE svg PUBLIC "-//W3C//DTD SVG 1.1//EN" "http://www.w3.org/Graphics/SVG/1.1/DTD/svg11.dtd"><svg width="100%" height="100%" viewBox="0 0 1020 422" version="1.1" xmlns="http://www.w3.org/2000/svg" xmlns:xlink="http://www.w3.org/1999/xlink" xml:space="preserve" xmlns:serif="http://www.serif.com/" style="fill-rule:evenodd;clip-rule:evenodd;stroke-linecap:round;stroke-linejoin:round;stroke-miterlimit:1.5;"><g><g transform="matrix(82.593209,0,0,82.593209,431.588643,59.121897)"></g><text x="215.79px" y="59.122px" style="font-family:'Arial-BoldItalicMT', 'Arial', sans-serif;font-weight:700;font-style:italic;font-size:82.593px;">&lt;div&gt;</text><g transform="matrix(64.718641,0,0,64.718641,252.356591,361.663573)"></g><text x="137.235px" y="361.664px" style="font-family:'Arial-BoldItalicMT', 'Arial', sans-serif;font-weight:700;font-style:italic;font-size:64.719px;">&lt;p&gt;</text><text x="856.338px" y="379.32px" style="font-family:'Arial-BoldItalicMT', 'Arial', sans-serif;font-weight:700;font-style:italic;font-size:79.856px;">&lt;/p&gt;</text><path d="M332.548,334.657l31.112,15.388l9.239,27.989l-10.283,26.056l-30.068,11.269l-31.719,-14.569l-8.633,-25.782l9.641,-25.782l30.71,-14.569Zm0,23.977l16.374,16.374l-16.374,16.374l-16.374,-16.374l16.374,-16.374Z" style="fill:#410adb;stroke:#000;stroke-width:1.25px;"/><path d="M687.489,335.066l31.112,15.388l9.239,27.989l-10.283,26.056l-30.068,11.269l-31.719,-14.569l-8.633,-25.782l9.641,-25.782l30.71,-14.569Zm0,23.977l16.374,16.374l-16.374,16.374l-16.374,-16.374l16.374,-16.374Z" style="fill:#410adb;stroke:#000;stroke-width:1.12px;"/><g><g transform="matrix(496.677427,0,0,496.677427,711.118991,405.416211)"></g><text x="312.176px" y="405.416px" style="font-family:'Swiss721BT-Heavy', 'Swis721 Hv BT', sans-serif;font-size:496.677px;fill:#fff;stroke:#000;stroke-width:4.17px;stroke-linecap:butt;stroke-miterlimit:2;">O</text><path d="M491.51,43.925l-51.11,68.39l-75.595,11.401l37.027,85.732l-50.952,93.495l101.594,19.747l43.518,80.263l74.502,-70.869l93.847,-16.357l-62.662,-95.525l62.662,-103.629l-88.718,-18.184l-84.112,-54.465Z" style="fill:none;stroke:#000;stroke-width:1.5px;"/><path d="M364.806,123.715l0,6.963l126.704,-86.754l172.831,75.53l0,196.273l-160.383,87.226l-153.078,-100.01l13.926,-179.228Z" style="fill:none;stroke:#000;stroke-width:1.5px;"/><path d="M573.504,97.421l105.117,112.026l-108.408,122.637l38.568,49.045l-156.307,-58.439l-57.322,49.409l6.02,-162.651l39.228,-97.133l133.104,-14.893Z" style="fill:none;stroke:#000;stroke-width:1.5px;"/><path d="M396.753,375.704l267.588,-59.977l-87.164,-218.306" style="fill:none;stroke:#000;stroke-width:1.5px;"/><g><circle cx="364.806" cy="123.715" r="6.963" style="fill:#1a32e6;"/><circle cx="491.51" cy="43.925" r="6.963" style="fill:#1a32e6;"/><circle cx="657.378" cy="123.005" r="6.963" style="fill:#1a32e6;"/><circle cx="664.341" cy="315.727" r="6.963" style="fill:#1a32e6;"/><circle cx="350.88" cy="302.943" r="6.963" style="fill:#1a32e6;"/><circle cx="500.604" cy="404.516" r="6.963" style="fill:#1a32e6;"/><circle cx="570.214" cy="332.084" r="6.963" style="fill:#1a32e6;"/><circle cx="601.679" cy="220.202" r="6.963" style="fill:#1a32e6;"/><circle cx="678.622" cy="209.448" r="6.963" style="fill:#1a32e6;"/><circle cx="401.833" cy="209.448" r="6.963" style="fill:#1a32e6;"/><circle cx="452.474" cy="322.69" r="6.963" style="fill:#1a32e6;"/><circle cx="440.4" cy="112.315" r="6.963" style="fill:#1a32e6;"/><circle cx="396.753" cy="375.704" r="6.963" style="fill:#1a32e6;"/><circle cx="608.217" cy="382.667" r="6.963" style="fill:#1a32e6;"/><circle cx="575.623" cy="98.389" r="6.963" style="fill:#1a32e6;"/></g></g><g id="P"><g transform="matrix(508.461493,0,0,508.461493,316.395955,418.924862)"></g><text x="-33.916px" y="418.925px" style="font-family:'Swiss721BT-Heavy', 'Swis721 Hv BT', sans-serif;font-size:508.461px;fill:#04acf9;stroke:#000;stroke-width:4.17px;stroke-linecap:butt;stroke-miterlimit:2;">P</text><path d="M7.491,58.742l100.862,31.751l85.999,-24.561l5.435,70.466l92.598,28.13l-76.911,111.152l-80.121,-57.136l80.121,57.136l-205.27,-49.324l26.113,112.547l-26.113,80.022" style="fill:none;stroke:#000;stroke-width:1.5px;"/><path d="M215.474,275.68l76.911,-111.152l-94.051,-96.896l-189.495,-7.128" style="fill:none;stroke:#000;stroke-width:1.5px;"/><path d="M8.84,58.742l80.697,99.832l-79.333,72.16l86.461,57.359l-62.557,51.072l55.429,72.631" style="fill:none;"/><clipPath id="_clip1"><path d="M8.84,58.742l80.697,99.832l-79.333,72.16l86.461,57.359l-62.557,51.072l55.429,72.631"/></clipPath><g clip-path="url(#_clip1)"><path d="M270.775,165.211l-57.317,100.151" style="fill:none;stroke:#875aee;stroke-width:1.5px;"/></g><path d="M8.84,58.742l80.697,99.832l-79.333,72.16l86.461,57.359l-62.557,51.072l55.429,72.631" style="fill:none;stroke:#000;stroke-width:1.5px;"/><path d="M104.369,87.709l-95.529,137.963" style="fill:none;stroke:#000;stroke-width:1.5px;"/><path d="M108.684,87.709l95.891,48.689l68.606,105.75l-156.777,36.5l-19.738,10.418l-89.175,-225.394l0,162.684l127.863,-7.812l-38.687,70.522l-93.589,29.145l86.461,93.586" style="fill:none;stroke:#000;stroke-width:1.5px;"/><g><circle cx="7.491" cy="414.321" r="7.128" style="fill:#1a32e6;"/><circle cx="96.666" cy="291.305" r="7.128" style="fill:#1a32e6;"/><circle cx="89.538" cy="411.797" r="7.128" style="fill:#1a32e6;"/><circle cx="36.318" cy="338.903" r="7.128" style="fill:#1a32e6;"/><circle cx="292.385" cy="164.528" r="7.128" style="fill:#1a32e6;"/><circle cx="198.335" cy="67.633" r="7.128" style="fill:#1a32e6;"/><circle cx="204.575" cy="136.398" r="7.128" style="fill:#1a32e6;"/><circle cx="215.474" cy="275.68" r="7.128" style="fill:#1a32e6;"/><circle cx="135.353" cy="218.544" r="7.128" style="fill:#1a32e6;"/><circle cx="273.18" cy="242.148" r="7.128" style="fill:#1a32e6;"/><circle cx="108.353" cy="90.493" r="7.128" style="fill:#1a32e6;"/><circle cx="7.491" cy="58.804" r="7.128" style="fill:#1a32e6;"/><circle cx="89.538" cy="158.574" r="7.128" style="fill:#1a32e6;"/><circle cx="10.204" cy="226.356" r="7.128" style="fill:#1a32e6;"/><circle cx="7.491" cy="318.117" r="7.128" style="fill:#1a32e6;"/></g></g><g id="P1" serif:id="P"><g transform="matrix(507.730591,0,0,507.730591,1040.173156,414.831549)"></g><text x="701.521px" y="414.832px" style="font-family:'Arial-BoldMT', 'Arial', sans-serif;font-weight:700;font-size:507.731px;fill:#04acf9;stroke:#000;stroke-width:4.17px;stroke-linecap:butt;stroke-miterlimit:2;">P</text><path d="M742.868,55.166l100.717,31.705l85.875,-24.525l29.541,50.055l46.773,48.619l-53.642,61.519l-83.599,-1.207l79.141,43.342l-202.096,-42.135l26.076,112.385l-26.076,79.907" style="fill:none;stroke:#000;stroke-width:1.5px;"/><path d="M947.673,264.675l58.1,-103.654l-72.336,-96.976l-189.222,-7.118" style="fill:none;stroke:#000;stroke-width:1.5px;"/><path d="M744.216,55.166l61.168,80.54l-59.806,91.205l59.806,47.348l-35.936,60.928l40.977,72.621" style="fill:none;"/><clipPath id="_clip2"><path d="M744.216,55.166l61.168,80.54l-59.806,91.205l59.806,47.348l-35.936,60.928l40.977,72.621"/></clipPath><g clip-path="url(#_clip2)"><path d="M1005.774,161.482l-57.235,100.007" style="fill:none;stroke:#875aee;stroke-width:1.5px;"/></g><path d="M744.216,55.166l61.168,80.54l-59.806,91.205l59.806,47.348l-35.936,60.928l40.977,72.621" style="fill:none;stroke:#000;stroke-width:1.5px;"/><path d="M839.608,84.092l-37.531,48.619" style="fill:none;stroke:#000;stroke-width:1.5px;"/><path d="M843.916,84.092l113.755,30.772l-7.118,107.677l-138.051,50.563l-69.634,-213.013l0,162.45l120.561,0l-50.927,50.563l-74.042,41.16l70.735,93.451" style="fill:none;stroke:#000;stroke-width:1.5px;"/><g><circle cx="742.868" cy="410.235" r="7.118" style="fill:#1a32e6;"/><circle cx="810.426" cy="273.103" r="7.118" style="fill:#1a32e6;"/><circle cx="809.195" cy="407.714" r="7.118" style="fill:#1a32e6;"/><circle cx="771.654" cy="334.925" r="7.118" style="fill:#1a32e6;"/><circle cx="1009.751" cy="161.226" r="7.118" style="fill:#1a32e6;"/><circle cx="933.438" cy="64.044" r="7.118" style="fill:#1a32e6;"/><circle cx="962.363" cy="115.125" r="7.118" style="fill:#1a32e6;"/><circle cx="947.673" cy="264.675" r="7.118" style="fill:#1a32e6;"/><circle cx="870.547" cy="222.54" r="7.118" style="fill:#1a32e6;"/><circle cx="950.553" cy="222.54" r="7.118" style="fill:#1a32e6;"/><circle cx="843.585" cy="86.871" r="7.118" style="fill:#1a32e6;"/><circle cx="742.868" cy="55.228" r="7.118" style="fill:#1a32e6;"/><circle cx="805.384" cy="135.707" r="7.118" style="fill:#1a32e6;"/><circle cx="745.578" cy="222.54" r="7.118" style="fill:#1a32e6;"/><circle cx="742.868" cy="314.168" r="7.118" style="fill:#1a32e6;"/></g></g></g></svg>