<?xml version="1.0" encoding="UTF-8" standalone="no"?><!DOCTYPE svg PUBLIC "-//W3C//DTD SVG 1.1//EN" "http://www.w3.org/Graphics/SVG/1.1/DTD/svg11.dtd"><svg width="100%" height="100%" viewBox="0 0 976 355" version="1.1" xmlns="http://www.w3.org/2000/svg" xmlns:xlink="http://www.w3.org/1999/xlink" xml:space="preserve" xmlns:serif="http://www.serif.com/" style="fill-rule:evenodd;clip-rule:evenodd;stroke-linejoin:round;stroke-miterlimit:2;"><g><g transform="matrix(72.687025,0,0,72.687025,392.727407,52.030849)"></g><text x="202.811px" y="52.031px" style="font-family:'Arial-BoldMT', 'Arial', sans-serif;font-weight:700;font-size:72.687px;">&lt;div&gt;</text><g transform="matrix(56.956323,0,0,56.956323,208.824987,325.860881)"></g><text x="107.511px" y="325.861px" style="font-family:'Arial-BoldMT', 'Arial', sans-serif;font-weight:700;font-size:56.956px;">&lt;p&gt;</text><text x="832.333px" y="302.489px" style="font-family:'Arial-BoldMT', 'Arial', sans-serif;font-weight:700;font-size:70.278px;">&lt;/p&gt;</text><path d="M283.269,283.262l27.38,13.543l8.131,24.632l-9.05,22.93l-26.462,9.918l-27.914,-12.822l-7.597,-22.689l8.485,-22.689l27.026,-12.822Zm0,21.101l14.41,14.41l-14.41,14.41l-14.41,-14.41l14.41,-14.41Z" style="fill:#410adb;"/><path d="M657.79,280.841l27.38,13.543l8.131,24.632l-9.05,22.93l-26.462,9.918l-27.914,-12.822l-7.597,-22.689l8.485,-22.689l27.026,-12.822Zm0,21.101l14.41,14.41l-14.41,14.41l-14.41,-14.41l14.41,-14.41Z" style="fill:#410adb;"/><g><g transform="matrix(437.106214,0,0,437.106214,639.780272,347.554751)"></g><text x="299.785px" y="347.555px" style="font-family:'Arial-BoldMT', 'Arial', sans-serif;font-weight:700;font-size:437.106px;fill:#ff6500;stroke:#000;stroke-width:4.17px;">O</text><path d="M459.485,35.457l-46.855,54.15l-66.528,10.033l32.586,75.45l-44.841,82.282l78.783,26.423l48.924,61.592l65.566,-62.369l76.162,-25.646l-38.412,-76.154l30.465,-82.862l-63.701,-21.004l-72.149,-41.895Z" style="fill:none;stroke:#875aee;stroke-width:1.5px;stroke-linecap:round;stroke-miterlimit:1.5;"/><path d="M346.102,99.641l0,6.128l113.383,-70.312l138.499,64.184l5.298,157.731l-134.718,88.015l-134.718,-88.015l12.255,-157.731Z" style="fill:none;stroke:#875aee;stroke-width:1.5px;stroke-linecap:round;stroke-miterlimit:1.5;"/><path d="M529.769,76.501l92.51,98.59l-95.405,107.928l33.942,43.163l-145.621,-37.035l-42.386,29.088l5.298,-143.143l34.523,-85.483l117.139,-13.107Z" style="fill:none;stroke:#875aee;stroke-width:1.5px;stroke-linecap:round;stroke-miterlimit:1.5;"/><path d="M560.815,175.091l0,-6.128l-27.814,-92.462" style="fill:none;stroke:#875aee;stroke-width:1.5px;stroke-linecap:round;stroke-miterlimit:1.5;"/><g><circle cx="346.102" cy="99.641" r="6.128" style="fill:#1a32e6;"/><circle cx="459.485" cy="35.457" r="6.128" style="fill:#1a32e6;"/><circle cx="598.299" cy="99.641" r="6.128" style="fill:#1a32e6;"/><circle cx="604.427" cy="257.372" r="6.128" style="fill:#1a32e6;"/><circle cx="333.847" cy="257.372" r="6.128" style="fill:#1a32e6;"/><circle cx="465.612" cy="346.763" r="6.128" style="fill:#1a32e6;"/><circle cx="526.874" cy="283.018" r="6.128" style="fill:#1a32e6;"/><circle cx="560.815" cy="175.091" r="6.128" style="fill:#1a32e6;"/><circle cx="622.279" cy="175.091" r="6.128" style="fill:#1a32e6;"/><circle cx="378.688" cy="175.091" r="6.128" style="fill:#1a32e6;"/><circle cx="412.63" cy="283.018" r="6.128" style="fill:#1a32e6;"/><circle cx="412.63" cy="89.608" r="6.128" style="fill:#1a32e6;"/><circle cx="374.218" cy="321.406" r="6.128" style="fill:#1a32e6;"/><circle cx="560.319" cy="327.534" r="6.128" style="fill:#1a32e6;"/><circle cx="531.634" cy="77.352" r="6.128" style="fill:#1a32e6;"/></g></g><g id="P"><g transform="matrix(447.476905,0,0,447.476905,268.296185,349.642533)"></g><text x="-30.167px" y="349.643px" style="font-family:'Arial-BoldMT', 'Arial', sans-serif;font-weight:700;font-size:447.477px;fill:#ff6400;stroke:#000;stroke-width:4.17px;">P</text><path d="M6.273,32.66l88.765,27.943l75.684,-21.615l26.035,44.115l41.222,42.849l-47.276,54.219l-73.678,-1.064l69.749,38.199l-178.112,-37.135l22.981,99.048l-22.981,70.424" style="fill:none;stroke:#875aee;stroke-width:1.5px;stroke-linecap:round;stroke-miterlimit:1.5;"/><path d="M186.774,217.305l51.205,-91.353l-63.752,-85.468l-166.767,-6.273" style="fill:none;stroke:#875aee;stroke-width:1.5px;stroke-linecap:round;stroke-miterlimit:1.5;"/><path d="M7.461,32.66l53.909,70.982l-52.709,80.382l52.709,41.729l-31.671,53.697l36.114,64.003" style="fill:none;"/><clipPath id="_clip1"><path d="M7.461,32.66l53.909,70.982l-52.709,80.382l52.709,41.729l-31.671,53.697l36.114,64.003"/></clipPath><g clip-path="url(#_clip1)"><path d="M237.979,126.359l-50.443,88.139" style="fill:none;stroke:#875aee;stroke-width:1.5px;stroke-linecap:round;stroke-miterlimit:1.5;"/></g><path d="M7.461,32.66l53.909,70.982l-52.709,80.382l52.709,41.729l-31.671,53.697l36.114,64.003" style="fill:none;stroke:#875aee;stroke-width:1.5px;stroke-linecap:round;stroke-miterlimit:1.5;"/><path d="M91.532,58.152l-33.077,42.849" style="fill:none;stroke:#875aee;stroke-width:1.5px;stroke-linecap:round;stroke-miterlimit:1.5;"/><path d="M95.329,58.152l100.255,27.12l-6.273,94.898l-121.668,44.563l-61.37,-187.734l0,143.171l106.254,0l-44.884,44.563l-65.255,36.275l56.067,76.088" style="fill:none;stroke:#875aee;stroke-width:1.5px;stroke-linecap:round;stroke-miterlimit:1.5;"/><g><circle cx="6.273" cy="345.591" r="6.273" style="fill:#1a32e6;"/><circle cx="65.813" cy="224.733" r="6.273" style="fill:#1a32e6;"/><circle cx="64.729" cy="343.369" r="6.273" style="fill:#1a32e6;"/><circle cx="31.642" cy="279.218" r="6.273" style="fill:#1a32e6;"/><circle cx="241.485" cy="126.133" r="6.273" style="fill:#1a32e6;"/><circle cx="174.228" cy="40.484" r="6.273" style="fill:#1a32e6;"/><circle cx="199.72" cy="85.503" r="6.273" style="fill:#1a32e6;"/><circle cx="186.774" cy="217.305" r="6.273" style="fill:#1a32e6;"/><circle cx="118.8" cy="180.17" r="6.273" style="fill:#1a32e6;"/><circle cx="189.311" cy="180.17" r="6.273" style="fill:#1a32e6;"/><circle cx="95.038" cy="60.602" r="6.273" style="fill:#1a32e6;"/><circle cx="6.273" cy="32.714" r="6.273" style="fill:#1a32e6;"/><circle cx="61.37" cy="103.642" r="6.273" style="fill:#1a32e6;"/><circle cx="8.661" cy="180.17" r="6.273" style="fill:#1a32e6;"/><circle cx="6.273" cy="260.925" r="6.273" style="fill:#1a32e6;"/></g></g><g id="P1" serif:id="P"><g transform="matrix(446.833668,0,0,446.833668,994.119482,352.066089)"></g><text x="696.085px" y="352.066px" style="font-family:'Arial-BoldMT', 'Arial', sans-serif;font-weight:700;font-size:446.834px;fill:#ff6400;stroke:#000;stroke-width:4.17px;">P</text><path d="M732.473,35.539l88.637,27.902l75.575,-21.584l25.998,44.052l41.163,42.788l-47.208,54.141l-73.572,-1.062l69.649,38.144l-177.856,-37.081l22.948,98.906l-22.948,70.323" style="fill:none;stroke:#875aee;stroke-width:1.5px;stroke-linecap:round;stroke-miterlimit:1.5;"/><path d="M912.714,219.919l51.132,-91.222l-63.66,-85.345l-166.527,-6.264" style="fill:none;stroke:#875aee;stroke-width:1.5px;stroke-linecap:round;stroke-miterlimit:1.5;"/><path d="M733.659,35.539l53.832,70.88l-52.633,80.266l52.633,41.669l-31.625,53.62l36.062,63.911" style="fill:none;"/><clipPath id="_clip2"><path d="M733.659,35.539l53.832,70.88l-52.633,80.266l52.633,41.669l-31.625,53.62l36.062,63.911"/></clipPath><g clip-path="url(#_clip2)"><path d="M963.846,129.103l-50.37,88.013" style="fill:none;stroke:#875aee;stroke-width:1.5px;stroke-linecap:round;stroke-miterlimit:1.5;"/></g><path d="M733.659,35.539l53.832,70.88l-52.633,80.266l52.633,41.669l-31.625,53.62l36.062,63.911" style="fill:none;stroke:#875aee;stroke-width:1.5px;stroke-linecap:round;stroke-miterlimit:1.5;"/><path d="M817.61,60.995l-33.029,42.788" style="fill:none;stroke:#875aee;stroke-width:1.5px;stroke-linecap:round;stroke-miterlimit:1.5;"/><path d="M821.401,60.995l100.111,27.081l-6.264,94.762l-121.493,44.499l-61.282,-187.464l0,142.966l106.101,0l-44.819,44.499l-65.161,36.223l55.987,75.979" style="fill:none;stroke:#875aee;stroke-width:1.5px;stroke-linecap:round;stroke-miterlimit:1.5;"/><g><circle cx="732.473" cy="348.021" r="6.264" style="fill:#1a32e6;"/><circle cx="791.928" cy="227.336" r="6.264" style="fill:#1a32e6;"/><circle cx="790.845" cy="345.802" r="6.264" style="fill:#1a32e6;"/><circle cx="757.806" cy="281.743" r="6.264" style="fill:#1a32e6;"/><circle cx="967.346" cy="128.878" r="6.264" style="fill:#1a32e6;"/><circle cx="900.186" cy="43.352" r="6.264" style="fill:#1a32e6;"/><circle cx="925.642" cy="88.306" r="6.264" style="fill:#1a32e6;"/><circle cx="912.714" cy="219.919" r="6.264" style="fill:#1a32e6;"/><circle cx="844.838" cy="182.838" r="6.264" style="fill:#1a32e6;"/><circle cx="915.248" cy="182.838" r="6.264" style="fill:#1a32e6;"/><circle cx="821.11" cy="63.441" r="6.264" style="fill:#1a32e6;"/><circle cx="732.473" cy="35.594" r="6.264" style="fill:#1a32e6;"/><circle cx="787.491" cy="106.419" r="6.264" style="fill:#1a32e6;"/><circle cx="734.858" cy="182.838" r="6.264" style="fill:#1a32e6;"/><circle cx="732.473" cy="263.476" r="6.264" style="fill:#1a32e6;"/></g></g></g></svg>